<mxfile host="app.diagrams.net" modified="2021-07-01T18:34:08.756Z" agent="5.0 (Windows NT 10.0; Win64; x64) AppleWebKit/537.36 (KHTML, like Gecko) Chrome/91.0.4472.124 Safari/537.36" etag="VChI0QJ9onQ_BFqfOq8L" version="14.8.3" type="github">
  <diagram name="Page-1" id="c7488fd3-1785-93aa-aadb-54a6760d102a">
    <mxGraphModel dx="1038" dy="579" grid="1" gridSize="10" guides="1" tooltips="1" connect="1" arrows="1" fold="1" page="1" pageScale="1" pageWidth="1100" pageHeight="850" background="none" math="0" shadow="0">
      <root>
        <mxCell id="0" />
        <mxCell id="1" parent="0" />
        <mxCell id="2b4e8129b02d487f-1" value="Pool" style="swimlane;html=1;childLayout=stackLayout;horizontal=1;startSize=20;horizontalStack=0;rounded=0;shadow=0;labelBackgroundColor=none;strokeWidth=1;fontFamily=Verdana;fontSize=8;align=center;" parent="1" vertex="1">
          <mxGeometry x="180" y="70" width="680" height="470" as="geometry" />
        </mxCell>
        <mxCell id="2b4e8129b02d487f-2" value="Lane 1" style="swimlane;html=1;startSize=20;horizontal=0;" parent="2b4e8129b02d487f-1" vertex="1">
          <mxGeometry y="20" width="680" height="150" as="geometry" />
        </mxCell>
        <mxCell id="2b4e8129b02d487f-18" style="edgeStyle=orthogonalEdgeStyle;rounded=0;html=1;labelBackgroundColor=none;startArrow=none;startFill=0;startSize=5;endArrow=classicThin;endFill=1;endSize=5;jettySize=auto;orthogonalLoop=1;strokeWidth=1;fontFamily=Verdana;fontSize=8" parent="2b4e8129b02d487f-2" source="2b4e8129b02d487f-5" target="2b4e8129b02d487f-6" edge="1">
          <mxGeometry relative="1" as="geometry" />
        </mxCell>
        <mxCell id="2b4e8129b02d487f-5" value="Index Page" style="ellipse;whiteSpace=wrap;html=1;rounded=0;shadow=0;labelBackgroundColor=none;strokeWidth=1;fontFamily=Verdana;fontSize=8;align=center;" parent="2b4e8129b02d487f-2" vertex="1">
          <mxGeometry x="40" y="50" width="50" height="50" as="geometry" />
        </mxCell>
        <mxCell id="2b4e8129b02d487f-6" value="Welcome Page, Three Links:" style="rounded=1;whiteSpace=wrap;html=1;shadow=0;labelBackgroundColor=none;strokeWidth=1;fontFamily=Verdana;fontSize=8;align=center;" parent="2b4e8129b02d487f-2" vertex="1">
          <mxGeometry x="120" y="38.25" width="110" height="73.5" as="geometry" />
        </mxCell>
        <mxCell id="2b4e8129b02d487f-12" value="Game Tutorial?" style="rounded=1;whiteSpace=wrap;html=1;shadow=0;labelBackgroundColor=none;strokeWidth=1;fontFamily=Verdana;fontSize=8;align=center;" parent="2b4e8129b02d487f-2" vertex="1">
          <mxGeometry x="291" y="56.49999999999996" width="70" height="37" as="geometry" />
        </mxCell>
        <mxCell id="2b4e8129b02d487f-24" style="edgeStyle=orthogonalEdgeStyle;rounded=0;html=1;labelBackgroundColor=none;startArrow=none;startFill=0;startSize=5;endArrow=classicThin;endFill=1;endSize=5;jettySize=auto;orthogonalLoop=1;strokeWidth=1;fontFamily=Verdana;fontSize=8" parent="2b4e8129b02d487f-2" source="2b4e8129b02d487f-6" target="2b4e8129b02d487f-12" edge="1">
          <mxGeometry relative="1" as="geometry" />
        </mxCell>
        <mxCell id="1nK2N1f0IscMo31vUQiH-6" value="Tutorial" style="ellipse;whiteSpace=wrap;html=1;aspect=fixed;" vertex="1" parent="2b4e8129b02d487f-2">
          <mxGeometry x="400" y="10" width="40" height="40" as="geometry" />
        </mxCell>
        <mxCell id="1nK2N1f0IscMo31vUQiH-4" style="edgeStyle=orthogonalEdgeStyle;rounded=0;orthogonalLoop=1;jettySize=auto;html=1;" edge="1" parent="2b4e8129b02d487f-2" source="2b4e8129b02d487f-12" target="1nK2N1f0IscMo31vUQiH-6">
          <mxGeometry relative="1" as="geometry">
            <mxPoint x="410" y="50" as="targetPoint" />
            <Array as="points">
              <mxPoint x="410" y="75" />
            </Array>
          </mxGeometry>
        </mxCell>
        <mxCell id="2b4e8129b02d487f-3" value="Lane 2" style="swimlane;html=1;startSize=20;horizontal=0;" parent="2b4e8129b02d487f-1" vertex="1">
          <mxGeometry y="170" width="680" height="150" as="geometry" />
        </mxCell>
        <mxCell id="1nK2N1f0IscMo31vUQiH-19" value="Description of Puzzle League Videogame History" style="rounded=1;whiteSpace=wrap;html=1;" vertex="1" parent="2b4e8129b02d487f-3">
          <mxGeometry x="240" y="45" width="190" height="65" as="geometry" />
        </mxCell>
        <mxCell id="1nK2N1f0IscMo31vUQiH-21" value="Return to Index Page" style="ellipse;whiteSpace=wrap;html=1;" vertex="1" parent="2b4e8129b02d487f-3">
          <mxGeometry x="520" y="37.5" width="120" height="80" as="geometry" />
        </mxCell>
        <mxCell id="2b4e8129b02d487f-4" value="Lane 3" style="swimlane;html=1;startSize=20;horizontal=0;" parent="2b4e8129b02d487f-1" vertex="1">
          <mxGeometry y="320" width="680" height="150" as="geometry" />
        </mxCell>
        <mxCell id="1nK2N1f0IscMo31vUQiH-23" value="Game, but with extra information about the coding process" style="rounded=1;whiteSpace=wrap;html=1;" vertex="1" parent="2b4e8129b02d487f-4">
          <mxGeometry x="240" y="35" width="190" height="85" as="geometry" />
        </mxCell>
        <mxCell id="1nK2N1f0IscMo31vUQiH-25" value="Return to Index Page" style="ellipse;whiteSpace=wrap;html=1;" vertex="1" parent="2b4e8129b02d487f-4">
          <mxGeometry x="530" y="40" width="120" height="80" as="geometry" />
        </mxCell>
        <mxCell id="1nK2N1f0IscMo31vUQiH-3" style="edgeStyle=orthogonalEdgeStyle;rounded=0;orthogonalLoop=1;jettySize=auto;html=1;exitX=0.75;exitY=1;exitDx=0;exitDy=0;" edge="1" parent="2b4e8129b02d487f-1" source="2b4e8129b02d487f-6" target="1nK2N1f0IscMo31vUQiH-19">
          <mxGeometry relative="1" as="geometry">
            <mxPoint x="280" y="230" as="targetPoint" />
            <Array as="points">
              <mxPoint x="203" y="248" />
            </Array>
          </mxGeometry>
        </mxCell>
        <mxCell id="1nK2N1f0IscMo31vUQiH-2" style="edgeStyle=orthogonalEdgeStyle;rounded=0;orthogonalLoop=1;jettySize=auto;html=1;exitX=0.25;exitY=1;exitDx=0;exitDy=0;entryX=0;entryY=0.5;entryDx=0;entryDy=0;" edge="1" parent="2b4e8129b02d487f-1" source="2b4e8129b02d487f-6" target="1nK2N1f0IscMo31vUQiH-23">
          <mxGeometry relative="1" as="geometry">
            <mxPoint x="148" y="390" as="targetPoint" />
          </mxGeometry>
        </mxCell>
        <mxCell id="1nK2N1f0IscMo31vUQiH-11" value="Yes" style="text;html=1;strokeColor=none;fillColor=none;align=center;verticalAlign=middle;whiteSpace=wrap;rounded=0;" vertex="1" parent="1">
          <mxGeometry x="540" y="140" width="40" height="20" as="geometry" />
        </mxCell>
        <mxCell id="1nK2N1f0IscMo31vUQiH-13" style="edgeStyle=orthogonalEdgeStyle;rounded=0;orthogonalLoop=1;jettySize=auto;html=1;" edge="1" parent="1" source="1nK2N1f0IscMo31vUQiH-6" target="1nK2N1f0IscMo31vUQiH-14">
          <mxGeometry relative="1" as="geometry">
            <mxPoint x="710" y="160" as="targetPoint" />
          </mxGeometry>
        </mxCell>
        <mxCell id="1nK2N1f0IscMo31vUQiH-14" value="Game Itself" style="shape=process;whiteSpace=wrap;html=1;backgroundOutline=1;" vertex="1" parent="1">
          <mxGeometry x="650" y="130" width="120" height="60" as="geometry" />
        </mxCell>
        <mxCell id="1nK2N1f0IscMo31vUQiH-16" style="edgeStyle=orthogonalEdgeStyle;rounded=0;orthogonalLoop=1;jettySize=auto;html=1;exitX=1;exitY=0.75;exitDx=0;exitDy=0;entryX=0;entryY=0.75;entryDx=0;entryDy=0;" edge="1" parent="1" source="2b4e8129b02d487f-12" target="1nK2N1f0IscMo31vUQiH-14">
          <mxGeometry relative="1" as="geometry" />
        </mxCell>
        <mxCell id="1nK2N1f0IscMo31vUQiH-20" style="edgeStyle=orthogonalEdgeStyle;rounded=0;orthogonalLoop=1;jettySize=auto;html=1;" edge="1" parent="1" source="1nK2N1f0IscMo31vUQiH-19">
          <mxGeometry relative="1" as="geometry">
            <mxPoint x="700" y="318" as="targetPoint" />
          </mxGeometry>
        </mxCell>
        <mxCell id="1nK2N1f0IscMo31vUQiH-26" style="edgeStyle=orthogonalEdgeStyle;rounded=0;orthogonalLoop=1;jettySize=auto;html=1;" edge="1" parent="1" source="1nK2N1f0IscMo31vUQiH-23">
          <mxGeometry relative="1" as="geometry">
            <mxPoint x="710" y="468" as="targetPoint" />
            <mxPoint x="620" y="327.5" as="sourcePoint" />
          </mxGeometry>
        </mxCell>
      </root>
    </mxGraphModel>
  </diagram>
</mxfile>
